<svg width="18" height="18" viewBox="0 0 18 18" fill="none" xmlns="http://www.w3.org/2000/svg">
<path fill-rule="evenodd" clip-rule="evenodd" d="M14.7603 12.54L9.00033 15.847L3.24033 12.54L4.93433 11.819L8.50233 13.867C8.65633 13.956 8.82833 14 9.00033 14C9.17233 14 9.34333 13.956 9.49833 13.867L13.0663 11.818L14.7603 12.54ZM8.50233 9.86701C8.65633 9.95601 8.82833 10 9.00033 10C9.17233 10 9.34333 9.95601 9.49833 9.86701L13.0663 7.81801L14.7603 8.54001L9.00033 11.847L3.24033 8.54001L4.93433 7.81801L8.50233 9.86701ZM9.00033 2.08701L14.7603 4.54001L9.00033 7.84701L3.24033 4.54001L9.00033 2.08701ZM17.9983 8.34801C17.9753 7.96901 17.7403 7.63601 17.3913 7.48701L15.2393 6.57101L17.4983 5.27401C17.8273 5.08601 18.0203 4.72701 17.9983 4.34801C17.9753 3.97001 17.7403 3.63601 17.3913 3.48701L9.39133 0.0800059C9.14133 -0.0269941 8.85833 -0.0269941 8.60833 0.0800059L0.608329 3.48701C0.259329 3.63601 0.024329 3.97001 0.00232901 4.34801C-0.020671 4.72701 0.173329 5.08601 0.502329 5.27401L2.76033 6.57101L0.608329 7.48701C0.259329 7.63601 0.024329 7.96901 0.00232901 8.34801C-0.020671 8.72701 0.173329 9.08601 0.502329 9.27401L2.76033 10.571L0.608329 11.487C0.259329 11.636 0.024329 11.969 0.00232901 12.348C-0.020671 12.727 0.173329 13.086 0.502329 13.274L8.50233 17.867C8.65633 17.956 8.82833 18 9.00033 18C9.17233 18 9.34333 17.956 9.49833 17.867L17.4983 13.274C17.8273 13.086 18.0203 12.727 17.9983 12.348C17.9753 11.97 17.7403 11.636 17.3923 11.487L15.2403 10.57L17.4983 9.27401C17.8273 9.08601 18.0203 8.72701 17.9983 8.34801Z" fill="#D1D5DB"/>
</svg>
