<svg width="16" height="20" viewBox="0 0 16 20" fill="none" xmlns="http://www.w3.org/2000/svg">
<path fill-rule="evenodd" clip-rule="evenodd" d="M8.00001 12H5.00001C4.44801 12 4.00001 11.552 4.00001 11C4.00001 10.448 4.44801 10 5.00001 10H8.00001C8.552 10 9.00001 10.448 9.00001 11C9.00001 11.552 8.552 12 8.00001 12ZM5.00001 14H11C11.553 14 12 14.448 12 15C12 15.552 11.553 16 11 16H5.00001C4.44801 16 4.00001 15.552 4.00001 15C4.00001 14.448 4.44801 14 5.00001 14ZM13.4443 18H2.55531C2.24931 18 2.00031 17.776 2.00031 17.5V2.5C2.00031 2.224 2.24931 2 2.55531 2H8.00031V5.15C8.00031 6.722 9.21731 8 10.7143 8H14.0003V17.5C14.0003 17.776 13.7513 18 13.4443 18ZM10.0003 2.978L12.7423 6H10.7143C10.3203 6 10.0003 5.619 10.0003 5.15V2.978ZM15.7403 6.328L10.2963 0.328C10.1063 0.119 9.83831 0 9.55531 0H2.55531C1.14631 0 0.000305176 1.122 0.000305176 2.5V17.5C0.000305176 18.878 1.14631 20 2.55531 20H13.4443C14.8533 20 16.0003 18.878 16.0003 17.5V7C16.0003 6.751 15.9073 6.512 15.7403 6.328Z" fill="#9CA3AF"/>
</svg>
