<svg width="20" height="18" viewBox="0 0 20 18" fill="none" xmlns="http://www.w3.org/2000/svg">
<path fill-rule="evenodd" clip-rule="evenodd" d="M2 10.7554V15.0684C2 15.3064 2.224 15.5004 2.5 15.5004H17.5C17.776 15.5004 18 15.3064 18 15.0684V6.4784C18 6.2394 17.776 6.0464 17.5 6.0464H10C9.7 6.0464 9.416 5.9114 9.226 5.6784L6.626 2.5004H2.5C2.224 2.5004 2 2.6934 2 2.9314V10.7554ZM17.5 17.5004H2.5C1.122 17.5004 0 16.4094 0 15.0684V2.9314C0 1.5904 1.122 0.500397 2.5 0.500397H7.101C7.4 0.500397 7.685 0.634397 7.875 0.867397L10.474 4.0464H17.5C18.878 4.0464 20 5.1364 20 6.4784V15.0684C20 16.4094 18.878 17.5004 17.5 17.5004Z" fill="#D1D5DB"/>
</svg>
