<svg width="16" height="22" viewBox="0 0 16 22" fill="none" xmlns="http://www.w3.org/2000/svg">
<path fill-rule="evenodd" clip-rule="evenodd" d="M2.87112 11.7998H8.00012C8.28412 11.7998 8.55512 11.9208 8.74412 12.1318C8.93312 12.3428 9.02412 12.6248 8.99412 12.9068L8.54511 17.0568L13.1291 10.1998H8.00012C7.71612 10.1998 7.44512 10.0788 7.25612 9.8678C7.06612 9.6568 6.97512 9.3748 7.00612 9.0928L7.45512 4.9438L2.87112 11.7998ZM7.11111 21.9998C6.99712 21.9998 6.88211 21.9808 6.76911 21.9398C6.33711 21.7818 6.06711 21.3498 6.11712 20.8928L6.88612 13.7998H1.00012C0.631115 13.7998 0.292115 13.5968 0.118115 13.2718C-0.0558848 12.9458 -0.0358848 12.5508 0.169115 12.2438L8.05812 0.444798C8.31312 0.0607982 8.79712 -0.0972018 9.23011 0.0607982C9.66311 0.217798 9.93312 0.650798 9.88311 1.1078L9.11411 8.1998H15.0001C15.3691 8.1998 15.7081 8.4038 15.8821 8.7288C16.0561 9.0548 16.0361 9.4488 15.8311 9.7558L7.94212 21.5558C7.75312 21.8398 7.43712 21.9998 7.11111 21.9998Z" fill="#D1D5DB"/>
</svg>
