<svg width="20" height="18" viewBox="0 0 20 18" fill="none" xmlns="http://www.w3.org/2000/svg">
<path fill-rule="evenodd" clip-rule="evenodd" d="M16 7C16 6.449 15.552 6 15 6C14.448 6 14 6.449 14 7C14 7.551 14.448 8 15 8C15.552 8 16 7.551 16 7ZM18 7C18 8.654 16.654 10 15 10C13.346 10 12 8.654 12 7C12 5.346 13.346 4 15 4C16.654 4 18 5.346 18 7ZM9 4C9 2.897 8.103 2 7 2C5.897 2 5 2.897 5 4C5 5.103 5.897 6 7 6C8.103 6 9 5.103 9 4ZM11 4C11 6.206 9.206 8 7 8C4.794 8 3 6.206 3 4C3 1.794 4.794 0 7 0C9.206 0 11 1.794 11 4ZM11.94 12.046C12.809 11.374 13.879 11 15 11C17.757 11 20 13.243 20 16C20 16.552 19.553 17 19 17C18.447 17 18 16.552 18 16C18 14.346 16.654 13 15 13C14.317 13 13.668 13.234 13.144 13.649C13.688 14.645 14 15.787 14 17C14 17.552 13.553 18 13 18C12.447 18 12 17.552 12 17C12 14.243 9.757 12 7 12C4.243 12 2 14.243 2 17C2 17.552 1.553 18 1 18C0.447 18 0 17.552 0 17C0 13.14 3.141 10 7 10C8.927 10 10.673 10.783 11.94 12.046Z" fill="#D1D5DB"/>
</svg>
